<svg version="1.1" 
        baseProfile="full" 
        width="1500" height="600"
        viewbox="0 0 1500 600"
        preserveAspectRatio="xMidYMid meet"
        xmlns="http://www.w3.org/2000/svg">
        <rect width="100%" height="100%" fill="#0d1925"/>
        <rect width="100%" height="100%" fill="url(#pattern)"/>
        <defs>
          <pattern id="pattern" x="0" y="0" width="33" height="33" patternTransform="rotate(331) scale(2)" patternUnits="userSpaceOnUse">
              <g>
                <path fill="#00000c" d="M19,3H5C3.9,3,3,3.9,3,5v14c0,1.1,0.9,2,2,2h14c1.1,0,2-0.9,2-2V5C21,3.9,20.1,3,19,3z M19,19H5V5h14V19z"/><rect fill="#00000c" height="1.5" width="5" x="6.25" y="7.72"/><rect fill="#00000c" height="1.5" width="5" x="13" y="15.75"/><rect fill="#00000c" height="1.5" width="5" x="13" y="13.25"/><polygon fill="#00000c" points="8,18 9.5,18 9.5,16 11.5,16 11.5,14.5 9.5,14.5 9.5,12.5 8,12.5 8,14.5 6,14.5 6,16 8,16"/><polygon fill="#00000c" points="14.09,10.95 15.5,9.54 16.91,10.95 17.97,9.89 16.56,8.47 17.97,7.06 16.91,6 15.5,7.41 14.09,6 13.03,7.06 14.44,8.47 13.03,9.89"/>
              </g>
          </pattern>
        </defs>
      </svg>
      